<svg id="Layer_1" data-name="Layer 1" xmlns="http://www.w3.org/2000/svg" xmlns:xlink="http://www.w3.org/1999/xlink" viewBox="0 0 93.94 65.93"><defs><style>.cls-1{fill:url(#linear-gradient);}</style><linearGradient id="linear-gradient" x1="76.13" y1="5.01" x2="24.14" y2="95.05" gradientUnits="userSpaceOnUse"><stop offset="0" stop-color="#cc3363"/><stop offset="1" stop-color="#9448bc"/></linearGradient></defs><path class="cls-1" d="M42.23,83,17.73,31.56V65.64a26.11,26.11,0,0,0,.63,6.73A6.58,6.58,0,0,0,21.3,76a10,10,0,0,0,5.62,1.51V83H3.19v-5.4a9.06,9.06,0,0,0,5.4-1.63,6.53,6.53,0,0,0,2.79-3.74,32,32,0,0,0,.51-6.78V30.73q0-5-1.72-6.64C9,23,6.69,22.41,3.19,22.41V17h26.4L49.91,60.34,70.43,17h26.5v5.39H95.62c-3.31,0-5.45.61-6.44,1.83s-1.49,3.3-1.49,6.25v39c0,3,.52,5.11,1.53,6.3s3.16,1.77,6.4,1.77h1.51V83H61.24v-5.4h1.32q4.91,0,6.39-1.82t1.48-6.25V30.73L46,83Z" transform="translate(-3.19 -17.02)"/></svg>